<svg width="344" height="138" viewBox="0 0 344 138" fill="none" xmlns="http://www.w3.org/2000/svg">
<path d="M96.6836 104.253V17.421C96.6836 10.2051 92.3835 4.01362 86.2545 1.36896C84.1515 0.462531 81.8912 -0.00301755 79.6082 1.47177e-05C75.2285 1.47177e-05 71.6752 3.62521 71.6752 8.09351V104.695C71.6752 108.92 68.3171 112.346 64.175 112.346H32.6102C28.468 112.346 25.11 108.92 25.11 104.695V72.4911C25.11 68.2651 28.468 64.8391 32.6102 64.8391H42.1855C46.5652 64.8391 50.1185 61.2157 50.1185 56.7456V47.2801C50.1185 42.8118 46.5669 39.1866 42.1855 39.1866H33.043C28.6633 39.1866 25.11 42.8118 25.11 47.2801V56.8147C25.11 60.9246 22.1073 64.3192 18.2173 64.8391C17.9865 64.8699 17.7523 64.8909 17.5154 64.9009C17.4026 64.9058 17.2898 64.9082 17.177 64.9082H7.96684C7.83869 64.9082 7.71157 64.9051 7.58545 64.8989C3.36515 65.0843 0 68.6342 0 72.9844V129.905C0 134.375 3.5533 137.999 7.933 138H63.7422C64.1663 138 64.5897 137.965 65.0085 137.896C68.7879 137.278 71.6752 133.936 71.6752 129.905V120.44C71.6752 115.972 75.2285 112.346 79.6082 112.346H88.7506C93.132 112.346 96.6836 108.723 96.6836 104.253Z" fill="#E91A3F"/>
<path d="M84.339 119.454H90.9486C94.116 119.454 96.6837 122.074 96.6837 125.305V132.148C96.6837 135.38 94.116 138 90.9486 138H84.339C81.1716 138 78.6039 135.38 78.6039 132.148V125.305C78.6039 122.074 81.1716 119.454 84.339 119.454Z" fill="#E91A3F"/>
<path d="M175.504 37.46H182.633V99.6074H177.097L176.175 93.0789C171.981 97.7421 165.858 100.54 158.728 100.54C145.14 100.54 135.327 90.281 135.327 76.7154C135.327 62.9803 145.14 52.8061 158.728 52.8061C165.439 52.8061 171.31 55.3496 175.504 59.5889V37.46ZM159.232 93.5876C168.878 93.5876 175.923 86.2961 175.923 76.7154C175.923 67.0499 168.878 59.7584 159.232 59.7584C149.67 59.7584 142.624 66.9652 142.624 76.7154C142.624 86.3809 149.67 93.5876 159.232 93.5876Z" fill="#E91A3F"/>
<path d="M228.965 53.7387H236.263L217.223 99.5226H210.68L191.137 53.7387H198.518L213.951 90.1962L228.965 53.7387Z" fill="#E91A3F"/>
<path d="M286.055 76.885C286.055 77.7329 285.971 78.5807 285.887 79.4285H247.304C248.394 87.907 254.685 93.5028 263.241 93.5028C269.531 93.5028 274.564 90.5354 277.332 85.6178H284.881C281.022 95.029 273.054 100.54 263.241 100.54C250.072 100.54 240.175 90.281 240.175 76.6306C240.175 63.0651 250.072 52.8061 263.241 52.8061C276.996 52.8061 286.055 63.489 286.055 76.885ZM263.241 59.5889C255.021 59.5889 248.898 64.8455 247.472 72.8153H278.926C277.416 64.676 271.293 59.5889 263.241 59.5889Z" fill="#E91A3F"/>
<path d="M320.598 52.8061C334.27 52.8061 344 62.9803 344 76.6306C344 90.281 334.27 100.54 320.598 100.54C313.553 100.54 307.43 97.7421 303.236 93.0789L302.229 99.5226H296.694V37.46H303.823V59.5889C308.017 55.3496 313.888 52.8061 320.598 52.8061ZM320.095 93.5876C329.657 93.5876 336.703 86.3809 336.703 76.6306C336.703 66.9652 329.657 59.7584 320.095 59.7584C310.449 59.7584 303.404 67.0499 303.404 76.6306C303.404 86.2113 310.449 93.5876 320.095 93.5876Z" fill="#E91A3F"/>
</svg>
